<svg xmlns="http://www.w3.org/2000/svg" viewBox="0 0 540 128" role="img" aria-labelledby="title desc">
  <title id="title">Volontyorlar</title>
  <desc id="desc">An open human figure beside the Volontyorlar wordmark.</desc>
  <circle cx="64" cy="28" r="18" fill="#45C1C4"/>
  <path d="M22 52C30 88 98 88 106 52" fill="none" stroke="#45C1C4" stroke-width="16" stroke-linecap="round"/>
  <g transform="translate(145 -78) scale(.85)" fill="none" stroke="#45C1C4" stroke-width="8" stroke-linecap="round" stroke-linejoin="round">
    <path d="M10 178L22 220L34 178"/>
    <circle cx="60" cy="199" r="21"/>
    <path d="M91 166V220"/>
    <circle cx="121" cy="199" r="21"/>
    <path d="M152 220V178M152 196C152 174 184 174 184 196V220"/>
    <path d="M210 166V208C210 216 214 220 222 220M198 180H222"/>
    <path d="M234 178L248 205L262 178M248 205V225C248 236 243 242 234 242"/>
    <circle cx="288" cy="199" r="21"/>
    <path d="M319 220V178M319 196C321 184 330 178 342 178"/>
    <path d="M359 166V220"/>
    <circle cx="389" cy="199" r="21"/>
    <path d="M410 178V220M410 196C412 184 421 178 433 178"/>
  </g>
</svg>
